<?xml version="1.0" encoding="UTF-8"?><svg xmlns="http://www.w3.org/2000/svg" xmlns:xlink="http://www.w3.org/1999/xlink" height="127.5" preserveAspectRatio="xMidYMid meet" version="1.0" viewBox="-0.4 -1.5 124.8 127.5" width="124.8" zoomAndPan="magnify"><g><g><g><g><g><path d="M122.29,118.328l-6.09-6.46l-2.46-2.63l-2.79-2.95l-2.61-2.77l-3.42-3.63 c5.69-6.63,9.93-14.67,12.11-23.75c0.61-2.53,1.04-5.05,1.3-7.57c0.65-6.33,0.22-12.59-1.16-18.56c0,0,1.58-22.22-16.42-36.47 c-18.01-14.24-38.1-12.05-38.1-12.05v0.01c-2.92-0.41-5.67-0.56-8.18-0.47c-15.74,0.58-24.67,7.59-27.31,16.25l-4.33-4.59 c0,0-7.42-7.94-12.89-3.98c-5.37,3.88-3.2,10.25-1.5,13.6c0.6,1.18,2.16,1.45,3.15,0.58c0.44-0.39,0.69-0.94,0.69-1.51 c0-0.25-0.05-0.51-0.15-0.75c-0.5-1.25-0.97-3.12,0.17-4.05c1.81-1.46,4.58,1.33,4.58,1.33l4.31,4.57 c-2.44,2.44-4.66,5.1-6.63,7.98c-3.87,5.6-6.79,11.99-8.47,18.99c-0.31,1.31-0.58,2.62-0.8,3.92c-1.6,3.19-3,6.4-4.16,9.61 c-0.4,1.09,0.14,2.29,1.22,2.69l0.2,0.06c0.74,0.18,1.5-0.08,1.99-0.64c0.05,1.14,0.13,2.28,0.24,3.41c0,0-2.86,2.2-1.93,4.69 c0.73,1.94,2.58,1.67,2.88,1.61c-0.35,0.2-2.88,1.67-2.11,3.85c0.99,2.79,3.35,1.82,3.62,1.7c-0.3,0.21-2.75,1.95-1.66,3.92 c1.3,2.36,3.5,0.9,3.5,0.9c1.74,4.07,3.94,7.93,6.57,11.49v0.01c1.52,2.05,3.17,4.01,4.96,5.85c0,0-1.75,2.61,0.34,4.23 c1.93,1.49,3.74-0.4,3.74-0.4c2.81,2.38,5.87,4.51,9.16,6.33c0,0,2.66,5.15,5.47,5.83c2.33,0.55,2.98-1.86,3.02-1.99 c1.9,0.68,3.86,1.26,5.88,1.74c4.39,1.06,8.79,1.58,13.13,1.6h0.01c-0.07,0.23-0.09,0.49-0.07,0.74 c0.06,0.56,0.32,1.06,0.74,1.41c0.24,0.2,0.51,0.33,0.8,0.4c0.77,0.19,1.58-0.11,2.08-0.74c0.52-0.67,1.04-1.34,1.55-2.02 c12.31-1.06,23.83-6.11,32.91-14.12l3.3,3.5l2.49,2.65l2.77,2.94l2.5,2.66l6.1,6.48c1.49,1.59,4,1.66,5.59,0.16 c0.83-0.77,1.24-1.82,1.24-2.88C123.36,120.068,123.01,119.088,122.29,118.328z M34.11,93.238c0-0.01-0.01-0.03-0.01-0.04 c0.01,0,0.02,0,0.03,0C34.12,93.208,34.11,93.218,34.11,93.238z" fill="#f48ca7"/></g><g><path d="M113.74,109.238l-0.01,0.01c-1.07,2.44-3.01,4.23-5.8,5.37l-2.77-2.94 c2.77-0.93,4.7-2.73,5.79-5.39L113.74,109.238z" fill="#5d5560"/></g><g><path d="M108.34,103.518l2.61,2.77c-1.09,2.66-3.02,4.46-5.79,5.39l-2.49-2.65 C105.3,108.008,107.19,106.168,108.34,103.518z" fill="#655f68"/></g><g><path d="M113.74,109.238l2.46,2.63c-0.83,2.34-2.75,4.15-5.77,5.41l-2.5-2.66 c2.79-1.14,4.73-2.93,5.8-5.37L113.74,109.238z" fill="#655f68"/></g><g><path d="M122.29,118.328c0.72,0.76,1.07,1.74,1.07,2.71c0,1.06-0.41,2.11-1.24,2.88 c-1.59,1.5-4.1,1.43-5.59-0.16l-6.1-6.48c3.02-1.26,4.94-3.07,5.77-5.41L122.29,118.328z" fill="#d2d2d1"/></g><g><path d="M34.61,36.738l-2.21-2.35l-4.92-5.23l-2.8-2.97l-0.2-0.21l-3.29-3.5l-4.31-4.57 c0,0-2.77-2.79-4.58-1.33c-1.14,0.93-0.67,2.8-0.17,4.05c0.1,0.24,0.15,0.5,0.15,0.75c0,0.57-0.25,1.12-0.69,1.51 c-0.99,0.87-2.55,0.6-3.15-0.58c-1.7-3.35-3.87-9.72,1.5-13.6c5.47-3.96,12.89,3.98,12.89,3.98l4.33,4.59l3.17,3.37l2.8,2.98 l3.84,4.08l4.19,4.45l4.5,4.78l2.63,2.79l3.93,4.17l5.38,5.72c-1.39,0.17-2.79,0.37-4.2,0.58c-1.82,0.27-3.58,0.57-5.29,0.89 v-0.01l-3.09-3.28l-3.57-3.79l-4.61-4.9v-0.01L34.61,36.738z" fill="#d2d2d1"/></g><g><path d="M83.27,76.888l3.22,3.42l0.01,0.01l3.64,3.86l6.65,7.06l8.13,8.65l3.42,3.63 c-1.15,2.65-3.04,4.49-5.67,5.51l-3.3-3.5l-3.69-3.92l-2.82-3l-2.5-2.65l-3.65-3.88l-3.17-3.36l-3.1-3.31l-1.52-1.6l-3.23-3.43 l-3.54-3.77l-6.77-7.19v-0.01c3.17-0.4,6.44-0.77,9.82-1.09l4.65,4.93L83.27,76.888z" fill="#d2d2d1"/></g><g><path d="M32.69,78.028c1.68,0.55,3.33,1.01,4.98,1.4c-1.57,1.96-3.13,3.94-4.67,5.96 C32.78,83.018,32.67,80.558,32.69,78.028z" fill="#dd507b"/></g><g><path d="M72.15,76.608l3.54,3.77c-11.5,4.62-23.12,6.25-36.05,5.63c1.44-1.85,2.9-3.67,4.37-5.47 c2.84,0.33,5.66,0.43,8.48,0.31C59.05,80.568,65.56,79.108,72.15,76.608z" fill="#dd507b"/></g><g><path d="M84.96,70.568c-0.51,2.12-1.08,4.23-1.69,6.32l-3.42-3.64 C81.54,72.418,83.25,71.528,84.96,70.568z" fill="#dd507b"/></g><g><path d="M100.52,65.608c2.01,0.24,4.03,0.52,6.07,0.84c-6.5,5.49-12.96,10.16-20.09,13.87l-0.01-0.01 c0.65-2.06,1.24-4.12,1.78-6.2c4.03-2.4,8.09-5.2,12.24-8.42L100.52,65.608z" fill="#e25983"/></g><g><path d="M42.34,116.508c0,0,0,0,0,0.01c-0.04,0.13-0.69,2.54-3.02,1.99c-2.81-0.68-5.47-5.83-5.47-5.83 c-1.94-3.96-3.45-8.3-4.54-12.9c1.59-2.21,3.18-4.39,4.8-6.54c0.31,1.62,0.66,3.18,1.03,4.67 C38,109.278,42.34,116.508,42.34,116.508z" fill="#dd507b"/></g><g><path d="M32.69,78.028c-0.02,2.53,0.09,4.99,0.31,7.36c0,0,0,0,0,0.01c-1.72,2.23-3.42,4.5-5.1,6.8 c-2.37-17.57,0.72-37.48,8.94-53.09l4.61,4.9c-1.22,2.33-2.4,4.85-3.51,7.56c-0.27,0.67-0.53,1.33-0.78,2 c-1.02,2.71-1.83,5.39-2.47,8.03c-0.45,1.84-0.82,3.66-1.11,5.45c-0.3,1.89-0.52,3.75-0.66,5.57 C32.77,74.458,32.69,76.258,32.69,78.028z" fill="#dd507b"/></g><g><path d="M79.43,30.198v0.01c-1.24,0.12-2.46,0.27-3.68,0.46v-0.01c-2.32-4.69-5.33-9.03-9.2-12.85 c1.17-0.6,2.28-1.1,3.3-1.52C73.87,20.748,77.01,25.338,79.43,30.198z" fill="#d3427a"/></g><g><path d="M47.12,68.138c-1.73,1.98-3.45,3.98-5.14,6.02c-3.3,1.1-6.4,2.37-9.29,3.87 c0-1.77,0.08-3.57,0.23-5.41C37.56,70.828,42.29,69.338,47.12,68.138z" fill="#db497a"/></g><g><path d="M84.4,44.498c0.25,1.12,0.48,2.26,0.68,3.42c-1.23,0-2.49,0.01-3.77,0.04 c-0.31-1.67-0.67-3.32-1.08-4.96c1.04-0.89,2.08-1.77,3.13-2.63C83.75,41.718,84.1,43.098,84.4,44.498z" fill="#db497a"/></g><g><path d="M68.71,46.028c-0.98,0.9-1.96,1.81-2.93,2.72c-0.29,0.02-0.57,0.05-0.86,0.08v-0.01 c-1.85-2.72-3.43-5.43-4.78-8.14c-0.9-1.79-1.7-3.58-2.4-5.37c-1.22-3.07-2.17-6.14-2.91-9.2c1.24-1.16,2.47-2.2,3.68-3.15 C60.65,31.528,63.82,39.378,68.71,46.028z" fill="#db497a"/></g><g><path d="M69.88,31.698v0.02c-1.26,0.26-2.51,0.55-3.74,0.88c-1.76-3.79-3.17-7.81-4.35-12v-0.01 c1.67-1.1,3.27-2.02,4.76-2.78C68.58,22.548,69.83,27.198,69.88,31.698z" fill="#db497a"/></g><g><path d="M82.32,29.948c-0.97,0.07-1.93,0.15-2.89,0.26v-0.01c-2.42-4.86-5.56-9.45-9.58-13.91 c4.22-1.73,6.99-2.08,6.99-2.08c0.52,0.19,1.03,0.38,1.54,0.58C80.47,18.998,81.79,24.048,82.32,29.948z" fill="#db497a"/></g><g><path d="M106.59,66.448c1.33,0.19,2.67,0.41,4.01,0.65c-2.8,3.4-5.84,6.49-9.14,9.26 c-3.51,2.98-7.3,5.58-11.32,7.82l-3.64-3.86C93.63,76.608,100.09,71.938,106.59,66.448z" fill="#dd507b"/></g><g><path d="M83.54,88.718l3.17,3.36H86.7c-0.65,2.18-1.46,4.24-2.43,6.18c-1.33,2.71-2.94,5.2-4.79,7.48 c-2.72,3.42-5.95,6.37-9.46,8.92C75.48,106.588,80.01,97.838,83.54,88.718z" fill="#dd507b"/></g><g><path d="M60.58,10.088c2.82,0.37,5.82,0.95,8.99,1.8c-0.48,0.12-16.7,4.18-28.41,20.27l-4.19-4.45 c1.85-2.39,3.83-4.62,5.92-6.64c1.94-1.88,3.98-3.59,6.11-5.1c3.62-2.57,7.5-4.57,11.58-5.87V10.088z" fill="#dd507b"/></g><g><path d="M52.78,61.868c-1.9,2.05-3.79,4.14-5.66,6.27c-4.83,1.2-9.56,2.69-14.2,4.48 c0.14-1.82,0.36-3.68,0.66-5.57h0.01c3.96-1.42,8-2.63,12.12-3.65C48.04,62.828,50.39,62.318,52.78,61.868z" fill="#dd507b"/></g><g><path d="M19.65,73.058c-0.24,2.01-0.42,4-0.54,5.97c-1.75,0.95-3.48,1.96-5.19,3.01 c-1.63,1-3.24,2.04-4.84,3.13c0,0-2.2,1.46-3.5-0.9c-1.09-1.97,1.36-3.71,1.66-3.92c0.02-0.01,0.03-0.01,0.03-0.01 C11.29,77.638,15.41,75.218,19.65,73.058z" fill="#dd507b"/></g><g><path d="M9.98,64.858c0.99-0.61,2.13-1.28,3.42-1.98c1.12-0.61,2.35-1.25,3.69-1.9 c1.6-0.79,3.37-1.59,5.3-2.4h0.01c-0.76,2.87-1.38,5.77-1.88,8.66h-0.01c-8.87,4.01-14.74,7.55-14.74,7.55 s-0.01,0.01-0.04,0.01c-0.3,0.06-2.15,0.33-2.88-1.61c-0.93-2.49,1.93-4.69,1.93-4.69S6.48,67.018,9.98,64.858z" fill="#dd507b"/></g><g><path d="M87.1,59.568c-0.24,1.63-0.52,3.26-0.83,4.88c-10.29-0.42-20.27,0.14-29.89,1.77 c1.77-1.94,3.56-3.85,5.38-5.73C69.93,59.498,78.39,59.198,87.1,59.568z" fill="#dd507b"/></g><g><path d="M85.08,47.918c1.08,0,2.15,0.01,3.19,0.02c-0.11,2.25-0.29,4.5-0.54,6.75 c-6.4-0.09-13.57,0.03-20.81,0.58c2.45-2.42,4.94-4.79,7.46-7.09h0.01c2.37-0.11,4.67-0.18,6.92-0.22 C82.59,47.928,83.85,47.918,85.08,47.918z" fill="#dd507b"/></g><g><path d="M110.61,67.098h-0.01c-1.34-0.24-2.68-0.46-4.01-0.65c-2.04-0.32-4.06-0.6-6.07-0.84 c-3.41-0.42-6.79-0.73-10.13-0.95c0.3-1.63,0.57-3.25,0.81-4.88c0.25-1.67,0.46-3.34,0.63-5.01h0.01 c0.24-2.25,0.42-4.51,0.53-6.75c14.81,0.41,24.8,1.99,24.8,1.99c1.38,5.97,1.81,12.23,1.16,18.56 c-1.45-0.3-2.89-0.59-4.32-0.86C112.87,67.488,111.74,67.288,110.61,67.098z" fill="#dd507b"/></g><g><path d="M100.75,13.538c18,14.25,16.42,36.47,16.42,36.47c-3.71-29.6-33.36-45.6-54.52-48.51v-0.01 C62.65,1.488,82.74-0.702,100.75,13.538z" fill="#e56184"/></g><g><path d="M107.23,34.838c2.01,2.29,3.67,4.48,5.02,6.45c-6.77-0.79-13.32-0.38-19.71,0.97 c0-2.5-0.06-4.98-0.22-7.45c4.99-0.24,9.97-0.22,14.9,0.03H107.23z" fill="#ea728c"/></g><g><path d="M101.46,76.358l0.01,0.01c-1.16,5.59-2.74,10.51-4.67,14.86l-0.01,0.01l-6.65-7.06 C94.16,81.938,97.95,79.338,101.46,76.358z" fill="#ea728c"/></g><g><path d="M107.22,34.838c-4.93-0.25-9.91-0.27-14.9-0.03c-0.02-0.49-0.06-0.97-0.09-1.45 c2.57-1.94,5.18-3.81,7.81-5.61C102.82,30.128,105.2,32.538,107.22,34.838z" fill="#e56184"/></g><g><path d="M95.99,24.518c-1.46,0.98-2.91,1.98-4.35,3v-0.01c-0.29-2.24-0.64-4.45-1.07-6.64 C92.5,22.038,94.3,23.268,95.99,24.518z" fill="#ea728c"/></g><g><path d="M90.36,95.958l2.5,2.65c-3.82,2.4-9.38,5.53-13.37,7.14l-0.01-0.01 c1.85-2.28,3.46-4.77,4.79-7.48l0.15,0.08c1.98-0.69,3.95-1.47,5.92-2.36L90.36,95.958z" fill="#e56184"/></g><g><path d="M86.27,64.448c0.31-1.62,0.59-3.25,0.83-4.88c0.24-1.63,0.45-3.25,0.63-4.88 c0.25-2.25,0.43-4.5,0.54-6.75c0.09-1.56,0.14-3.12,0.16-4.67c0.03-2.31-0.01-4.61-0.12-6.9c1.3-1.02,2.6-2.03,3.92-3.01 c0.03,0.48,0.07,0.96,0.09,1.45c0.16,2.47,0.22,4.95,0.22,7.45c-0.01,1.91-0.06,3.83-0.17,5.76c-0.11,2.24-0.29,4.5-0.53,6.75 h-0.01c-0.17,1.67-0.38,3.34-0.63,5.01c-0.24,1.63-0.51,3.25-0.81,4.88c-0.59,3.16-1.29,6.32-2.12,9.45 c-0.54,2.08-1.13,4.14-1.78,6.2l-3.22-3.42c0.61-2.09,1.18-4.2,1.69-6.32c0.24-1.03,0.48-2.06,0.69-3.09h0.01 C85.88,66.468,86.08,65.468,86.27,64.448z" fill="#e25983"/></g><g><path d="M87.76,29.688c-0.43-3.91-1.09-7.77-1.97-11.53c1.67,0.87,3.26,1.77,4.78,2.7v0.01 c0.43,2.19,0.78,4.4,1.07,6.64v0.01c-1.28,0.9-2.55,1.82-3.81,2.75v-0.01C87.81,30.068,87.79,29.878,87.76,29.688z" fill="#e25983"/></g><g><path d="M86.71,92.078l3.65,3.88l-0.02,0.02c-1.97,0.89-3.94,1.67-5.92,2.36l-0.15-0.08 c0.97-1.94,1.78-4,2.43-6.18H86.71z" fill="#ea728c"/></g><g><path d="M88.31,36.368c0.11,2.29,0.15,4.59,0.12,6.9c-1.35,0.37-2.69,0.78-4.02,1.23H84.4 c-0.3-1.4-0.65-2.78-1.04-4.13C85,38.998,86.64,37.668,88.31,36.368z" fill="#ea728c"/></g><g><path d="M87.83,30.258v0.01c-2.47,1.82-4.9,3.7-7.31,5.63c-3.9,0.53-7.73,1.25-11.49,2.17 c-1.06-1.76-2.02-3.58-2.89-5.47c1.23-0.33,2.48-0.62,3.74-0.88c1.93-0.43,3.89-0.78,5.87-1.05c1.22-0.19,2.44-0.34,3.68-0.46 c0.96-0.11,1.92-0.19,2.89-0.26c1.79-0.14,3.61-0.22,5.44-0.26C87.79,29.878,87.81,30.068,87.83,30.258z" fill="#e56184"/></g><g><path d="M79.49,105.748c3.99-1.61,9.55-4.74,13.37-7.14c-6.68,10.49-15.94,16.75-26.4,21.04 c1.23-1.63,2.41-3.29,3.56-4.99c3.51-2.55,6.74-5.5,9.46-8.92L79.49,105.748z" fill="#ea728c"/></g><g><path d="M86.27,64.448c-0.19,1.02-0.39,2.02-0.61,3.03h-0.01c-3.58,0.23-7.07,0.51-10.45,0.84 c-3.38,0.32-6.65,0.69-9.82,1.09c-1.25,0.17-2.49,0.34-3.7,0.51c-1.49,0.21-2.96,0.43-4.39,0.66c-1.94,0.3-3.82,0.62-5.66,0.95 c1.57-1.8,3.15-3.57,4.74-5.31h0.01C66,64.588,75.98,64.028,86.27,64.448z" fill="#e25983"/></g><g><path d="M80.44,85.408l3.1,3.31c-3.53,9.12-8.06,17.87-13.52,25.94c-1.15,1.7-2.33,3.36-3.56,4.99 c-0.51,0.68-1.03,1.35-1.55,2.02c-0.5,0.63-1.31,0.93-2.08,0.74c-0.29-0.07-0.56-0.2-0.8-0.4c-0.42-0.35-0.68-0.85-0.74-1.41 c-0.02-0.25,0-0.51,0.07-0.74c0.06-0.29,0.2-0.57,0.39-0.81c2.7-3.43,5.21-7.04,7.52-10.77c1.44-2.32,2.8-4.69,4.09-7.1 c2.06-3.88,3.93-7.87,5.58-11.94h0.01c0.51-1.27,1.01-2.54,1.48-3.82L80.44,85.408z" fill="#e25983"/></g><g><path d="M80.23,42.998c0.41,1.64,0.77,3.29,1.08,4.96c-2.25,0.04-4.55,0.11-6.92,0.22 C76.32,46.408,78.26,44.688,80.23,42.998z" fill="#ea728c"/></g><g><path d="M78.92,83.808l1.52,1.6l-0.01,0.01c-0.47,1.28-0.97,2.55-1.48,3.82h-0.01 c-13.26,4.75-28.45,6.15-44.81,3.96c1.82-2.44,3.66-4.83,5.5-7.19h0.01c12.93,0.62,24.55-1.01,36.05-5.63L78.92,83.808z" fill="#e56184"/></g><g><path d="M75.81,13.828c0.35,0.12,0.69,0.25,1.03,0.38c0,0-2.77,0.35-6.99,2.08 c-1.02,0.42-2.13,0.92-3.3,1.52c-1.49,0.76-3.09,1.68-4.76,2.78v0.01c-1.07,0.7-2.16,1.49-3.28,2.36 c-1.21,0.95-2.44,1.99-3.68,3.15c-3.08,2.88-6.2,6.43-9.17,10.83l-4.5-4.78c11.71-16.09,27.93-20.15,28.41-20.27 c0.01,0,0.01,0,0.01,0C71.59,12.418,73.67,13.068,75.81,13.828z" fill="#e25983"/></g><g><path d="M69.27,108.278c-2.31,3.73-4.82,7.34-7.52,10.77c-0.19,0.24-0.33,0.52-0.39,0.81h-0.01 c-4.34-0.02-8.74-0.54-13.13-1.6c-2.02-0.48-3.98-1.06-5.88-1.74c0-0.01,0-0.01,0-0.01s-4.34-7.23-7.2-18.6 c12.5,3.95,25.37,5.47,38.22,3.27C72.07,103.588,70.71,105.958,69.27,108.278z" fill="#ea728c"/></g><g><path d="M80.52,35.898c-2.79,2.24-5.53,4.55-8.24,6.93c-1.18-1.52-2.26-3.11-3.25-4.76 C72.79,37.148,76.62,36.428,80.52,35.898z" fill="#ea728c"/></g><g><path d="M64.92,48.828c0.29-0.03,0.57-0.06,0.86-0.08c-2.56,2.41-5.07,4.88-7.56,7.41l-0.02-0.02 c-2.64,0.34-5.25,0.75-7.8,1.23c-5.4,1.03-10.73,2.53-15.71,4.23c0.64-2.64,1.45-5.32,2.47-8.03 c3.37-0.91,7.02-1.76,10.95-2.48c1.71-0.32,3.47-0.62,5.29-0.89c1.41-0.21,2.81-0.41,4.2-0.58 C60.07,49.308,62.51,49.038,64.92,48.828z" fill="#e25983"/></g><g><path d="M64.92,48.818v0.01c-2.41,0.21-4.85,0.48-7.32,0.79l-5.38-5.72c2.55-1.2,5.2-2.27,7.91-3.22 h0.01C61.49,43.388,63.07,46.098,64.92,48.818z" fill="#f48ca7"/></g><g><path d="M60.58,10.088v0.01c-4.08,1.3-7.96,3.3-11.58,5.87c-2.69,0.32-5.35,0.71-7.99,1.17 c4.05-2.99,8.2-5.54,12.34-7.55h0.01C55.62,9.608,58.03,9.758,60.58,10.088z" fill="#e56184"/></g><g><path d="M60.14,40.678h-0.01c-2.71,0.95-5.36,2.02-7.91,3.22l-3.93-4.17c3.06-1.69,6.21-3.17,9.45-4.42 C58.44,37.098,59.24,38.888,60.14,40.678z" fill="#e56184"/></g><g><path d="M57.29,70.578c-2.06,2.83-3.79,6.12-4.8,10.27c-2.82,0.12-5.64,0.02-8.48-0.31 c2.51-3.07,5.05-6.08,7.62-9.01C53.47,71.198,55.35,70.878,57.29,70.578z" fill="#e56184"/></g><g><path d="M43.4,10.468c2.94-0.56,6.26-0.9,9.95-0.88c-4.14,2.01-8.29,4.56-12.34,7.55 c-2.38,1.76-4.72,3.67-7.01,5.71c-0.29,0.26-0.58,0.52-0.87,0.78l-2.8-2.98C34.52,16.808,38.92,13.368,43.4,10.468z" fill="#db497a"/></g><g><path d="M49,15.968c-2.13,1.51-4.17,3.22-6.11,5.1c-2.96,0.4-5.92,1-8.89,1.78 c2.29-2.04,4.63-3.95,7.01-5.71C43.65,16.678,46.31,16.288,49,15.968z" fill="#ea728c"/></g><g><path d="M41.45,44.008l3.57,3.79c-2.78,1.73-5.41,3.65-7.86,5.77c0.25-0.67,0.51-1.33,0.78-2 C39.05,48.858,40.23,46.338,41.45,44.008z" fill="#e56184"/></g><g><path d="M32.69,78.028c1.68,0.55,3.33,1.01,4.98,1.4c1.42-1.78,2.86-3.53,4.31-5.27L32.69,78.028z" fill="#f48ca7"/></g><g><path d="M42.89,21.068c-2.09,2.02-4.07,4.25-5.92,6.64l-3.84-4.08c0.29-0.26,0.58-0.52,0.87-0.78 C36.97,22.068,39.93,21.468,42.89,21.068z" fill="#f48ca7"/></g><g><path d="M19.65,73.058c0.24-1.93,0.52-3.87,0.86-5.82h0.01c0.5-2.89,1.12-5.79,1.88-8.66 c1.16-4.49,2.62-8.9,4.38-13.13c0.78-1.86,1.61-3.67,2.5-5.44l0.01-0.01c0.97-1.93,2.01-3.8,3.11-5.61l2.21,2.35 c-9.88,17.45-13.3,37.83-10.57,60.84c-1.15,1.63-2.29,3.28-3.43,4.94c-1.54-6.85-2.05-14.96-1.5-23.49 C19.23,77.058,19.41,75.068,19.65,73.058z" fill="#e25983"/></g><g><path d="M27.48,29.158l4.92,5.23c-5.93,2.24-11.47,5.33-16.64,9.27 C19.24,38.548,23.21,33.648,27.48,29.158z" fill="#f48ca7"/></g><g><path d="M43.4,10.468c-4.48,2.9-8.88,6.34-13.07,10.18l-3.17-3.37 C27.16,17.278,32.73,12.478,43.4,10.468z" fill="#e56184"/></g><g><path d="M29.31,99.778c1.09,4.6,2.6,8.94,4.54,12.9c-3.29-1.82-6.35-3.95-9.16-6.33 C26.22,104.128,27.76,101.948,29.31,99.778z" fill="#ea728c"/></g><g><path d="M32.4,34.388c-1.1,1.81-2.14,3.68-3.11,5.61l-0.01,0.01c-4.23,2.04-8.09,4.35-11.59,6.93 c-3.02,2.22-5.76,4.64-8.24,7.27c1.85-3.57,3.97-7.11,6.31-10.55C20.93,39.718,26.47,36.628,32.4,34.388z" fill="#e56184"/></g><g><path d="M24.68,26.188c-7.76,8.13-14.53,17.53-19.39,27.18c-1.6,3.19-3,6.4-4.16,9.61 c-0.4,1.09,0.14,2.29,1.22,2.69l0.2,0.06c0.74,0.18,1.5-0.08,1.99-0.64c0.18-0.19,0.33-0.43,0.42-0.7 c1.22-3.39,2.73-6.8,4.48-10.17l0.01-0.01c1.85-3.57,3.97-7.11,6.31-10.55l11.72-14.5L24.68,26.188z" fill="#db497a"/></g><g><path d="M29.28,40.008c-0.89,1.77-1.72,3.58-2.5,5.44c-1.76,4.23-3.22,8.64-4.38,13.13h-0.01 c-1.93,0.81-3.7,1.61-5.3,2.4v-0.01C19.74,52.028,23.94,44.218,29.28,40.008z" fill="#ea728c"/></g><g><path d="M21.19,22.478l3.29,3.5c-3.3,1.29-6.61,2.78-9.92,4.48C16.53,27.578,18.75,24.918,21.19,22.478z" fill="#ea728c"/></g><g><path d="M19.11,79.028c-0.55,8.53-0.04,16.64,1.5,23.49c-1.79-1.84-3.44-3.8-4.96-5.85v-0.01 c-1.23-4.37-1.78-9.38-1.73-14.62C15.63,80.988,17.36,79.978,19.11,79.028z" fill="#ea728c"/></g><g><path d="M9.98,64.858c-3.5,2.16-5.2,3.64-5.2,3.64c-0.11-1.13-0.19-2.27-0.24-3.41 c0.18-0.19,0.33-0.43,0.42-0.7c1.22-3.39,2.73-6.8,4.48-10.17l0.01-0.01c2.48-2.63,5.22-5.05,8.24-7.27 c-1.96,4.98-3.37,10.3-4.29,15.94C12.11,63.578,10.97,64.248,9.98,64.858z" fill="#ea728c"/></g></g></g></g><g><path d="M123.014,117.646l-8.554-9.086c-0.001-0.001-0.001-0.001-0.002-0.002l-5.394-5.73 c0-0.001-0.001-0.001-0.001-0.002l-2.815-2.99c5.688-6.847,9.652-14.729,11.753-23.465c0.606-2.519,1.024-5.046,1.293-7.575 c0.002-0.009,0.008-0.016,0.01-0.025c0.006-0.031-0.003-0.06,0.001-0.09c0.653-6.265,0.289-12.545-1.127-18.753 c0.089-1.903,0.665-23.344-16.811-37.171C83.306-1.531,63.512,0.392,62.558,0.494c-2.912-0.399-5.655-0.559-8.127-0.469 C40.61,0.536,30.427,6.251,26.769,15.409l-3.205-3.404c-0.327-0.351-8.101-8.531-14.215-4.111 c-4.343,3.141-4.999,8.56-1.799,14.869c0.422,0.832,1.191,1.409,2.111,1.584c0.93,0.178,1.875-0.08,2.586-0.709 c0.954-0.844,1.279-2.203,0.809-3.382c-0.212-0.531-0.848-2.31-0.125-2.896c0.911-0.74,2.789,0.8,3.222,1.231l3.649,3.876 c-2.213,2.287-4.226,4.744-6.022,7.348c-0.018,0.021-0.029,0.044-0.045,0.066C9.728,35.708,6.795,42.252,5.12,49.215 c-0.303,1.261-0.565,2.545-0.784,3.822c-1.61,3.208-3.003,6.422-4.151,9.604c-0.577,1.602,0.236,3.38,1.874,3.986l0.255,0.075 c0.234,0.057,0.469,0.083,0.701,0.083c0.217,0,0.429-0.032,0.637-0.077c0.031,0.454,0.054,0.908,0.095,1.36 c-0.884,0.829-2.769,2.969-1.831,5.475c0.35,0.934,0.914,1.512,1.529,1.857c-0.766,0.923-1.27,2.158-0.765,3.584 c0.422,1.193,1.116,1.994,2.063,2.38c0.04,0.017,0.08,0.02,0.12,0.035c-0.577,0.956-0.836,2.131-0.16,3.355 c0.66,1.195,1.532,1.625,2.147,1.775c0.253,0.062,0.5,0.087,0.736,0.087c0.361,0,0.693-0.063,0.984-0.146 c2.681,5.992,6.313,11.437,10.817,16.206c-0.605,1.336-0.907,3.421,0.952,4.859c0.737,0.57,1.482,0.784,2.174,0.784 c0.839,0,1.596-0.316,2.173-0.693c2.628,2.164,5.449,4.106,8.412,5.771c0.64,1.177,3.105,5.386,5.983,6.078 c0.312,0.075,0.616,0.112,0.91,0.112c0.994,0,1.867-0.425,2.518-1.24c0.16-0.2,0.288-0.404,0.394-0.599 c1.665,0.563,3.363,1.071,5.079,1.484c4.057,0.976,8.203,1.496,12.34,1.588c0.107,0.771,0.477,1.463,1.069,1.953 c0.355,0.295,0.762,0.499,1.209,0.606c0.229,0.055,0.46,0.082,0.691,0.082c0.919,0,1.815-0.426,2.406-1.179 c0.434-0.552,0.847-1.124,1.272-1.685c11.825-1.107,23.246-5.954,32.32-13.698l16.509,17.537c0.974,1.034,2.29,1.556,3.609,1.556 c1.218,0,2.439-0.446,3.395-1.345c0.963-0.907,1.516-2.135,1.556-3.458C124.399,119.869,123.921,118.61,123.014,117.646z M109.597,114.934c1.88-0.993,3.337-2.331,4.359-3.992l1.071,1.137c-0.758,1.658-2.193,2.972-4.358,3.992L109.597,114.934z M106.875,112.042c1.862-0.903,3.31-2.25,4.326-4.027l1.326,1.408c-0.918,1.736-2.354,3.049-4.361,3.989L106.875,112.042z M104.34,109.349c1.788-0.958,3.207-2.336,4.242-4.115l1.172,1.245c-0.918,1.897-2.343,3.221-4.33,4.022L104.34,109.349z M79.633,83.104C79.633,83.104,79.633,83.103,79.633,83.104l-6.761-7.182c-0.001-0.001-0.002-0.002-0.003-0.003l-5.409-5.746 c2.437-0.299,4.89-0.568,7.354-0.81l4.298,4.566c0.001,0.001,0.002,0.002,0.003,0.003l3.238,3.439 c0.085,0.183,0.227,0.328,0.407,0.432l3.021,3.209c0.001,0.001,0.003,0.003,0.004,0.004l21.358,22.688 c-0.956,1.896-2.348,3.255-4.23,4.128L79.633,83.104z M85.571,92.329c-2.064,6.586-5.856,12.463-11.306,17.538 c3.685-6.084,6.898-12.547,9.617-19.332L85.571,92.329z M84.906,99.223c1.75-0.611,3.497-1.308,5.214-2.062l1.17,1.243 c-2.531,1.548-5.762,3.391-8.756,4.865C83.407,101.958,84.197,100.609,84.906,99.223z M86.111,96.642 c0.37-0.871,0.717-1.752,1.026-2.649l1.522,1.617C87.814,95.97,86.966,96.315,86.111,96.642z M70.731,115.376 c3.646-2.671,6.77-5.611,9.365-8.801c2.786-1.145,6.194-2.941,9.225-4.681c-5.002,6.448-11.461,11.428-19.899,15.362 C69.862,116.632,70.301,116.008,70.731,115.376z M75.795,94.01c-3.956,1.24-8.006,1.979-12.048,2.175 c-0.552,0.027-0.977,0.496-0.951,1.047c0.026,0.535,0.468,0.952,0.998,0.952c0.017,0,0.033,0,0.049-0.001 c3.616-0.175,7.233-0.782,10.791-1.76c-0.629,1.298-1.277,2.581-1.946,3.85c-11.531,1.881-23.874,0.822-36.705-3.15 c-0.22-0.898-0.428-1.821-0.626-2.766c4.635,0.566,9.176,0.863,13.603,0.863c9.995,0,19.425-1.459,28.196-4.33 C76.71,91.935,76.266,92.982,75.795,94.01z M78.17,88.449c-12.691,4.462-26.877,5.794-42.195,3.973 c1.376-1.826,2.755-3.627,4.138-5.397c1.608,0.07,3.191,0.111,4.747,0.111c11.106,0,20.945-1.818,30.562-5.588l1.746,1.854 c-6.998,2.65-14.52,4.41-22.954,5.348c-0.549,0.061-0.944,0.555-0.883,1.104c0.057,0.512,0.49,0.89,0.992,0.89 c0.037,0,0.074-0.002,0.112-0.006c8.914-0.991,16.841-2.882,24.217-5.758l0.622,0.66C78.917,86.583,78.545,87.517,78.17,88.449z M82.803,42.135c0.406,1.553,0.765,3.166,1.077,4.817c-0.583,0.004-1.168-0.003-1.749,0.005c-0.241-1.227-0.504-2.432-0.79-3.601 C81.826,42.941,82.316,42.543,82.803,42.135z M104.825,33.748c-3.866-0.134-7.704-0.125-11.46,0.027 c2.179-1.624,4.37-3.21,6.58-4.735C101.736,30.615,103.364,32.196,104.825,33.748z M114.279,66.745 c-0.015-0.004-0.029-0.005-0.044-0.008c-2.523-0.477-5.026-0.903-7.506-1.281c-0.026-0.004-0.05-0.01-0.076-0.011 c-5.151-0.784-10.197-1.352-15.099-1.701c0.17-0.964,0.329-1.929,0.478-2.894c2.635,0.183,5.32,0.418,8.01,0.718 c0.038,0.004,0.075,0.006,0.112,0.006c0.502,0,0.936-0.378,0.992-0.889c0.062-0.549-0.334-1.043-0.883-1.104 c-2.667-0.298-5.327-0.531-7.942-0.714c0.141-1.022,0.27-2.044,0.386-3.065c10.919,0.344,18.715,1.209,18.795,1.218 c0.038,0.004,0.076,0.006,0.113,0.006c0.502,0,0.935-0.377,0.993-0.888c0.062-0.549-0.333-1.043-0.882-1.105 c-0.08-0.009-7.876-0.875-18.8-1.225c0.156-1.591,0.274-3.178,0.37-4.762c11.916,0.374,20.612,1.502,23.034,1.846 c1.192,5.457,1.551,10.968,1.088,16.473C116.37,67.15,115.322,66.942,114.279,66.745z M90.317,82.914l-2.195-2.332 c6.133-3.317,12.139-7.503,18.759-13.082c0.602,0.093,1.206,0.192,1.81,0.291C103.45,73.859,97.283,78.941,90.317,82.914z M91.723,84.407c2.838-1.644,5.548-3.464,8.118-5.459c-0.912,3.748-2.047,7.255-3.386,10.486L91.723,84.407z M111.646,42.235 c1.896,2.791,3.145,5.091,3.854,6.524c-3.446-0.453-11.518-1.378-22.097-1.711c0.058-1.323,0.094-2.642,0.11-3.957 C99.604,41.879,105.696,41.59,111.646,42.235z M91.196,65.722c2.239,0.156,4.508,0.359,6.805,0.608 c-2.744,2.055-5.473,3.938-8.159,5.626C90.343,69.884,90.796,67.804,91.196,65.722z M89.137,74.745 c3.843-2.312,7.79-5.026,11.745-8.082c1.109,0.137,2.223,0.284,3.344,0.443c-5.63,4.638-10.833,8.263-16.087,11.192 C88.487,77.116,88.823,75.932,89.137,74.745z M93.519,41.054c-0.01-1.77-0.055-3.531-0.144-5.279 c4.356-0.18,8.825-0.167,13.317,0.044c1.284,1.477,2.423,2.907,3.423,4.26C104.652,39.651,99.085,39.983,93.519,41.054z M91.341,35.287c0.789,13.994-1.037,28.807-5.31,43.074l-1.652-1.754c0.545-1.882,1.039-3.776,1.498-5.677 c0.031-0.079,0.046-0.159,0.056-0.243c0.226-0.947,0.449-1.894,0.654-2.845c0.021-0.054,0.027-0.111,0.039-0.169 c0.199-0.93,0.373-1.861,0.551-2.793c0.057-0.121,0.093-0.255,0.098-0.397c0.001-0.024-0.01-0.045-0.011-0.069 c0.28-1.493,0.534-2.986,0.759-4.481c0.041-0.102,0.074-0.209,0.079-0.326c0.002-0.036-0.014-0.068-0.016-0.103 c0.223-1.515,0.421-3.027,0.588-4.539c0.026-0.086,0.058-0.17,0.059-0.264c0.001-0.039-0.017-0.072-0.021-0.11 c0.232-2.155,0.408-4.304,0.525-6.444c0.014-0.066,0.041-0.127,0.042-0.197c0-0.042-0.018-0.078-0.023-0.118 c0.076-1.461,0.119-2.915,0.141-4.364c0.023-0.11,0.022-0.223,0.006-0.339c0.025-2.108,0.007-4.203-0.085-6.274 C89.993,36.329,90.665,35.802,91.341,35.287z M81.492,73.539c0.639-0.324,1.278-0.652,1.925-0.997 c-0.204,0.788-0.425,1.573-0.644,2.358L81.492,73.539z M85.912,46.945c-0.109-0.594-0.224-1.184-0.346-1.768 c0.606-0.197,1.209-0.385,1.811-0.564c-0.019,0.776-0.033,1.549-0.068,2.328C86.842,46.938,86.379,46.946,85.912,46.945z M84.058,69.922c-1.345,0.742-2.681,1.443-3.995,2.099l-2.732-2.903c2.337-0.211,4.685-0.391,7.038-0.549 C84.267,69.021,84.164,69.472,84.058,69.922z M87.36,38.403c0.042,1.365,0.065,2.734,0.056,4.115 c-0.757,0.218-1.519,0.451-2.285,0.698c-0.2-0.846-0.413-1.676-0.639-2.491C85.445,39.94,86.402,39.168,87.36,38.403z M79.634,44.835c0.163,0.71,0.317,1.43,0.464,2.161c-1.018,0.023-2.023,0.061-3.032,0.097C77.92,46.331,78.776,45.58,79.634,44.835 z M74.775,49.167c4.063-0.183,8.231-0.253,12.412-0.225c-0.098,1.576-0.227,3.156-0.389,4.741 c-6.043-0.062-11.825,0.08-17.265,0.415C71.272,52.418,73.019,50.772,74.775,49.167z M67.329,56.239 c5.993-0.44,12.47-0.624,19.261-0.557c-0.113,0.951-0.248,1.902-0.383,2.854c-7.482-0.27-14.8-0.054-21.806,0.652 C65.375,58.197,66.35,57.207,67.329,56.239z M62.19,61.442c7.573-0.895,15.547-1.198,23.728-0.914 c-0.153,0.964-0.324,1.927-0.5,2.891c-9.125-0.317-17.98,0.145-26.381,1.375C60.085,63.667,61.135,62.539,62.19,61.442z M56.84,67.156c8.92-1.487,18.399-2.072,28.204-1.748c-0.074,0.374-0.133,0.75-0.211,1.124c-7.866,0.516-15.658,1.324-23.281,2.406 c-0.028,0.004-0.054,0.006-0.082,0.012c-1.441,0.205-2.876,0.42-4.304,0.645c-0.022,0.003-0.043,0.006-0.066,0.01 c-0.961,0.151-1.918,0.307-2.872,0.467C55.099,69.095,55.967,68.113,56.84,67.156z M59.635,71.234 c-1.069,1.77-1.828,3.434-2.384,5.209c-0.166,0.527,0.128,1.088,0.655,1.253c0.099,0.031,0.2,0.046,0.299,0.046 c0.425,0,0.82-0.274,0.954-0.702c0.649-2.07,1.625-3.999,3.104-6.184c0.912-0.128,1.824-0.255,2.741-0.376l5.36,5.694 c-5.671,2.022-11.154,3.221-16.548,3.588c0.87-2.939,2.205-5.653,4.044-8.253C58.451,71.418,59.041,71.323,59.635,71.234z M52.11,72.462c1.018-0.18,2.041-0.353,3.067-0.523c-1.555,2.497-2.695,5.111-3.457,7.918c-1.917,0.055-3.827-0.001-5.731-0.154 C48.021,77.237,50.06,74.814,52.11,72.462z M44.445,81.582c1.919,0.203,3.84,0.318,5.769,0.318c0.742,0,1.485-0.025,2.229-0.055 c0.015,0.001,0.03,0.005,0.045,0.005c0.016,0,0.03-0.007,0.046-0.008c6.298-0.266,12.69-1.617,19.332-4.07l2.079,2.208 c-10.057,3.828-20.408,5.466-32.3,5.1C42.577,83.904,43.51,82.733,44.445,81.582z M104.865,98.368l-6.904-7.334 c1.838-4.262,3.324-9.01,4.412-14.143c1.157-0.986,2.28-2.014,3.374-3.073c-0.804,5.453-2.144,10.527-4.005,15.11 c-0.208,0.512,0.038,1.095,0.55,1.303c0.124,0.05,0.251,0.074,0.376,0.074c0.395,0,0.769-0.236,0.927-0.624 c2.221-5.468,3.724-11.598,4.479-18.22c0.557-0.591,1.108-1.189,1.647-1.8c-0.026,3.371-0.707,7.499-2.057,12.342 c-0.148,0.532,0.163,1.083,0.695,1.232c0.09,0.025,0.18,0.037,0.269,0.037c0.438,0,0.839-0.29,0.963-0.732 c1.579-5.662,2.282-10.436,2.11-14.235c0.466,0.083,0.934,0.171,1.402,0.258c0.331,3.153-0.118,6.817-1.358,10.918 c-0.16,0.529,0.139,1.087,0.667,1.247c0.097,0.029,0.194,0.043,0.29,0.043c0.429,0,0.826-0.279,0.957-0.711 c1.242-4.103,1.743-7.832,1.498-11.109c0.691,0.135,1.384,0.275,2.078,0.417c-0.263,2.183-0.653,4.363-1.176,6.537 C114.048,84.259,110.272,91.803,104.865,98.368z M100.125,14.326c8.437,6.675,12.461,15.216,14.374,22.263 C106.807,18.985,89.441,7.921,73.604,2.998C80.892,4.086,90.83,6.972,100.125,14.326z M54.505,2.023 c16.823-0.65,46.371,10.353,57.574,34.018c-5.307-8.658-13.044-16.007-23.153-21.932c-0.477-0.279-1.089-0.12-1.369,0.357 c-0.279,0.477-0.119,1.089,0.357,1.369c9.912,5.81,17.473,13.014,22.616,21.505c-0.738-0.942-1.537-1.911-2.4-2.9 c-0.078-0.175-0.206-0.316-0.365-0.421c-1.963-2.218-4.255-4.52-6.886-6.802c-0.007-0.011-0.007-0.023-0.014-0.034 c-0.103-0.15-0.244-0.248-0.397-0.322c-1.176-1.005-2.421-2.003-3.736-2.988c-0.095-0.109-0.205-0.192-0.33-0.25 c-1.621-1.2-3.35-2.375-5.188-3.512c-0.082-0.071-0.172-0.124-0.273-0.165c-1.458-0.894-2.984-1.762-4.583-2.597 c-0.061-0.043-0.127-0.072-0.196-0.1c-2.327-1.207-4.799-2.346-7.435-3.385c-0.019-0.007-0.036-0.015-0.055-0.021 c-0.486-0.191-0.984-0.374-1.481-0.559c-0.037-0.014-0.07-0.031-0.109-0.041c-0.314-0.116-0.617-0.24-0.935-0.353 c-20.483-7.294-34.88-3.929-42.724-0.452c5.491-4.059,12.891-6.319,22.126-6.717c0.552-0.024,0.98-0.49,0.956-1.042 c-0.023-0.552-0.497-0.975-1.042-0.956c-10.2,0.439-18.304,3.078-24.206,7.851C35.775,5.821,43.882,2.416,54.505,2.023z M72.442,41.358c-0.625-0.847-1.229-1.726-1.812-2.638c2.088-0.48,4.231-0.908,6.421-1.277 C75.507,38.721,73.971,40.027,72.442,41.358z M16.57,96.219c-1.099-3.984-1.652-8.563-1.651-13.619 c1.021-0.62,2.049-1.219,3.082-1.804c-0.303,6.429-0.005,12.677,0.947,18.398C18.122,98.226,17.326,97.237,16.57,96.219z M12.927,83.842c0.049,2.791,0.265,5.441,0.651,7.926c-1.207-2-2.282-4.084-3.239-6.236C11.194,84.957,12.057,84.394,12.927,83.842 z M10.843,58.842c-0.545-0.104-1.065,0.257-1.167,0.799c-0.29,1.555-0.495,3.101-0.633,4.615c-1.472,0.921-2.6,1.704-3.398,2.292 c-0.026-0.389-0.064-0.776-0.081-1.163c0.134-0.204,0.254-0.422,0.341-0.662c1.186-3.286,2.658-6.609,4.367-9.922 c1.632-1.723,3.406-3.357,5.292-4.913c-1.301,3.877-2.326,8.007-3.057,12.331c-0.456,0.252-0.895,0.5-1.313,0.742 c0.121-0.977,0.265-1.962,0.45-2.953C11.744,59.466,11.386,58.943,10.843,58.842z M30.661,34.001 c-3.695,1.498-7.266,3.342-10.678,5.51c2.324-3.057,4.833-6.032,7.5-8.886L30.661,34.001z M16.486,44.369 c4.241-3.219,8.793-5.88,13.566-7.947c-0.518,0.928-1.021,1.87-1.508,2.827c-4.137,2.021-7.945,4.322-11.41,6.875 c-0.062,0.042-0.126,0.078-0.177,0.133c-1.184,0.878-2.331,1.784-3.432,2.722C14.461,47.433,15.451,45.895,16.486,44.369z M18.513,47.59c1.802-1.317,3.693-2.57,5.686-3.744C21,48.02,18.266,53.643,16.258,60.265c-0.516,0.254-1.009,0.504-1.491,0.752 C15.661,56.256,16.907,51.743,18.513,47.59z M25.958,44.837c-0.032,0.077-0.068,0.151-0.1,0.228 c-1.699,4.07-3.124,8.373-4.294,12.782c-0.992,0.419-1.933,0.836-2.837,1.25C20.642,53.333,23.12,48.466,25.958,44.837z M21.133,100.019c-1.195-6.452-1.522-13.64-1.036-21.035c-0.001-0.022,0.006-0.042,0.004-0.064 c0.744-11.211,3.34-22.872,7.603-33.085c1.427-3.419,3.073-6.699,4.881-9.791l0.798,0.848c-9.541,17.2-13.034,37.524-10.372,60.434 C22.384,98.218,21.758,99.116,21.133,100.019z M24.766,94.843c-2.109-21.315,1.271-40.275,10.062-56.415l0.801,0.851 c-7.822,15.224-11.088,34.815-8.76,52.666C26.168,92.908,25.465,93.865,24.766,94.843z M28.608,89.549 c-1.735-16.628,1.377-34.544,8.482-48.719l3.152,3.348c-1.15,2.235-2.237,4.587-3.229,7.014c-2.087,5.106-3.556,10.38-4.418,15.786 c0,0.007-0.003,0.013-0.003,0.02c-0.294,1.845-0.519,3.705-0.67,5.579c0,0.006-0.001,0.012-0.001,0.018 c-0.145,1.814-0.22,3.643-0.231,5.482c0,0.01-0.003,0.019-0.002,0.028c0,0.003,0.001,0.006,0.002,0.009 c-0.012,2.311,0.08,4.64,0.281,6.986C30.848,86.571,29.724,88.042,28.608,89.549z M46.15,50.454 c-1.613,0.321-3.211,0.66-4.783,1.028c1.125-0.832,2.296-1.628,3.497-2.395L46.15,50.454z M39.565,50.343 c0.681-1.578,1.396-3.115,2.146-4.604l1.759,1.869C42.123,48.48,40.819,49.392,39.565,50.343z M33.806,82.71 c-0.063-1.115-0.1-2.226-0.113-3.333c0.747,0.227,1.492,0.439,2.24,0.635C35.223,80.908,34.513,81.8,33.806,82.71z M37.286,78.296 c-0.624-0.154-1.249-0.309-1.876-0.486c1.108-0.511,2.27-0.994,3.464-1.46C38.344,76.999,37.813,77.639,37.286,78.296z M41.377,73.307c-2.735,0.922-5.299,1.963-7.662,3.099c0.03-1.029,0.086-2.052,0.159-3.073c3.371-1.281,6.842-2.419,10.366-3.395 C43.284,71.052,42.328,72.168,41.377,73.307z M46.544,67.259c-4.241,1.065-8.425,2.37-12.478,3.872 c0.115-1.117,0.254-2.228,0.422-3.334c3.719-1.311,7.568-2.466,11.458-3.426c1.32-0.325,2.662-0.627,4.01-0.914 C48.816,64.713,47.676,65.97,46.544,67.259z M52.252,60.952c-2.28,0.436-4.561,0.93-6.784,1.479 c-3.59,0.885-7.143,1.939-10.599,3.122c0.198-1.063,0.418-2.122,0.665-3.174c5.237-1.762,10.302-3.123,15.055-4.028 c1.569-0.299,3.21-0.572,4.893-0.823C54.401,58.654,53.325,59.797,52.252,60.952z M57.768,55.189 c-2.623,0.341-5.164,0.743-7.553,1.197c-4.472,0.851-9.215,2.109-14.105,3.705c0.519-1.916,1.125-3.812,1.811-5.686 c4.987-1.327,10.239-2.414,15.633-3.223c1.396-0.208,2.787-0.4,4.17-0.576c1.732-0.22,3.498-0.411,5.271-0.589 C61.242,51.705,59.5,53.428,57.768,55.189z M38.236,12.853c-2.649,1.955-5.272,4.091-7.845,6.404l-1.739-1.847 C30.081,16.411,33.319,14.421,38.236,12.853z M43.681,11.485c1.638-0.307,3.393-0.55,5.273-0.697 c-2.809,1.59-5.639,3.428-8.444,5.495c-0.036,0.021-0.066,0.046-0.099,0.071c-2.361,1.744-4.698,3.65-6.988,5.684 c-0.033,0.024-0.06,0.052-0.09,0.079c-0.045,0.04-0.091,0.08-0.136,0.12l-1.434-1.523C35.653,17.221,39.654,14.114,43.681,11.485z M42.446,20.122c-1.533,0.214-3.086,0.486-4.649,0.81c1.203-0.987,2.414-1.943,3.632-2.847c1.315-0.23,2.658-0.442,4.021-0.639 C44.43,18.288,43.429,19.181,42.446,20.122z M48.644,15.005c-1.169,0.141-2.329,0.296-3.478,0.461 c2.794-1.858,5.589-3.486,8.336-4.83c0.863,0.006,1.749,0.037,2.653,0.086C53.585,11.866,51.074,13.298,48.644,15.005z M40.061,22.533c-1.078,1.156-2.126,2.377-3.148,3.652L34.6,23.728C36.428,23.255,38.253,22.858,40.061,22.533z M60.624,11.136 c1.68,0.218,3.421,0.516,5.222,0.9c-5.425,2.024-16.104,7.186-24.772,18.569l-2.777-2.95 C44.784,19.489,52.482,13.788,60.624,11.136z M69.562,12.926c1.193,0.322,2.411,0.686,3.652,1.087 c-5.732,1.688-17.458,6.763-27.666,21.343l-3.083-3.275C53.162,17.87,67.517,13.489,69.562,12.926z M84.914,18.854 c0.734,3.199,1.308,6.51,1.723,9.871c-1.15,0.037-2.292,0.092-3.424,0.165c-0.49-4.558-1.463-8.648-2.903-12.207 C81.908,17.373,83.441,18.099,84.914,18.854z M81.217,29.038c-0.404,0.034-0.806,0.071-1.207,0.109 c-2.239-4.373-5.018-8.457-8.457-12.426c2.641-0.987,4.51-1.369,5.16-1.482c0.312,0.117,0.626,0.232,0.933,0.352 C79.459,19.357,80.656,23.876,81.217,29.038z M62.976,21.053c1.061-0.68,2.088-1.28,3.076-1.815 c1.721,4.247,2.639,8.085,2.794,11.672c-0.716,0.16-1.423,0.333-2.127,0.51C65.312,28.278,64.067,24.836,62.976,21.053z M70.83,30.489c-0.143-2.581-0.651-5.272-1.534-8.124c1.846,2.304,3.492,4.818,4.923,7.52 C73.077,30.066,71.946,30.266,70.83,30.489z M76.31,29.571c-2.193-4.278-4.899-8.12-8.063-11.447 c0.46-0.218,0.909-0.422,1.343-0.61c3.361,3.803,6.086,7.703,8.287,11.865C77.354,29.442,76.829,29.501,76.31,29.571z M54.301,28.024c0.617,2.3,1.333,4.542,2.159,6.726c-2.723,1.095-5.393,2.347-7.964,3.739l-1.548-1.644 C49.336,33.393,51.823,30.473,54.301,28.024z M57.199,36.608c0.488,1.183,1.008,2.352,1.561,3.506 c-2.175,0.79-4.287,1.654-6.305,2.58l-2.538-2.696C52.275,38.743,54.714,37.607,57.199,36.608z M59.655,41.917 c1.065,2.064,2.245,4.085,3.535,6.073c-1.752,0.172-3.494,0.36-5.21,0.573l-4.077-4.331C55.751,43.404,57.677,42.63,59.655,41.917z M65.394,47.711c-4.406-6.595-7.501-13.561-9.44-21.25c0.67-0.61,1.337-1.19,1.999-1.737c2.25,8.434,5.347,15.382,9.435,21.156 C66.724,46.491,66.056,47.09,65.394,47.711z M68.878,44.52c-4.012-5.729-7.039-12.664-9.219-21.149 c0.532-0.404,1.058-0.784,1.58-1.15c1.143,3.869,2.444,7.404,3.924,10.621c0.001,0.002,0,0.005,0,0.007 c0.027,0.104,0.073,0.197,0.128,0.283c0.894,1.919,1.85,3.73,2.874,5.435c0.012,0.021,0.022,0.043,0.036,0.063 c0.858,1.423,1.772,2.76,2.725,4.042C70.241,43.279,69.56,43.902,68.878,44.52z M80.091,34.947 c-3.63,0.508-7.175,1.174-10.562,1.974c-0.68-1.167-1.33-2.383-1.949-3.653c5.617-1.386,11.619-2.228,17.897-2.501 C83.67,32.127,81.874,33.52,80.091,34.947z M88.619,28.462c-0.351-2.838-0.814-5.638-1.389-8.371 c0.835,0.465,1.648,0.938,2.441,1.419c0.345,1.822,0.643,3.677,0.892,5.537C89.912,27.51,89.267,27.992,88.619,28.462z M92.4,25.778c-0.135-0.945-0.281-1.883-0.441-2.82c0.778,0.513,1.536,1.031,2.271,1.556C93.618,24.929,93.009,25.354,92.4,25.778z M11.672,15.806c-0.877,0.711-1.671,2.189-0.473,5.191c0.158,0.397,0.047,0.856-0.277,1.143c-0.243,0.215-0.564,0.305-0.886,0.243 c-0.181-0.035-0.512-0.148-0.703-0.525C7.743,18.72,5.78,12.943,10.521,9.515c4.689-3.392,11.516,3.784,11.585,3.859l33.434,35.516 c-0.761,0.104-1.52,0.201-2.284,0.316c-1.608,0.241-3.2,0.512-4.781,0.801l-15.354-16.31c-0.002-0.002-0.003-0.003-0.005-0.005 l-4.851-5.153c-0.03-0.038-0.046-0.082-0.081-0.116c-0.021-0.02-0.047-0.026-0.069-0.044l-2.918-3.1 c-0.002-0.002-0.003-0.004-0.005-0.005l-7.6-8.073C16.326,15.927,13.654,14.201,11.672,15.806z M22.749,25.596 c-1.636,0.667-3.29,1.393-4.957,2.173c1.065-1.331,2.195-2.612,3.383-3.844L22.749,25.596z M15.232,31.238 c2.035-1.035,4.063-1.987,6.069-2.861c-5.111,5.716-9.626,11.847-13.36,18.108C9.595,41.04,12.056,35.904,15.232,31.238z M2.835,64.772l-0.141-0.041c-0.553-0.205-0.834-0.839-0.628-1.412c1.129-3.128,2.5-6.288,4.086-9.443 c0.002-0.004,0.004-0.008,0.006-0.012c4.57-9.087,10.941-18.125,18.521-26.216l1.43,1.519 c-7.139,7.622-13.176,16.121-17.606,24.702C8.503,53.87,8.501,53.873,8.5,53.875c-1.752,3.394-3.261,6.8-4.477,10.169 C3.832,64.575,3.299,64.88,2.835,64.772z M5.436,69.247c0.03-0.026,1.654-1.415,4.913-3.437c0.023-0.009,0.04-0.028,0.062-0.038 c2.524-1.562,6.017-3.494,10.531-5.481c-0.498,2.07-0.945,4.156-1.323,6.253c-7.767,3.537-13.22,6.706-14.205,7.288 c-0.396,0.055-1.241,0.033-1.625-0.992C3.128,71.075,5.369,69.301,5.436,69.247z M4.565,78.315 c-0.524-1.481,1.643-2.631,1.665-2.643c0.009-0.004,0.013-0.013,0.022-0.018c0.011-0.006,0.025-0.008,0.036-0.015 c0.054-0.033,5.165-3.102,12.94-6.716c-0.184,1.165-0.35,2.329-0.496,3.493c-4.082,2.101-8.102,4.465-11.942,7.034 c-0.153,0.06-0.768,0.274-1.29,0.061C5.104,79.35,4.789,78.948,4.565,78.315z M7.324,84.586c-0.334-0.082-0.619-0.343-0.871-0.799 c-0.692-1.254,1.335-2.6,1.368-2.622c3.431-2.298,7-4.416,10.624-6.335c-0.125,1.203-0.231,2.402-0.314,3.598 c-3.264,1.803-6.497,3.787-9.607,5.908C8.519,84.34,7.892,84.723,7.324,84.586z M21.563,105.954 c-1.295-1.001-0.246-2.691-0.131-2.868c8.645-12.636,17.467-24.08,26.538-34.418c0.003-0.005,0.008-0.008,0.011-0.013 c1.854-2.113,3.72-4.172,5.596-6.193c0.011-0.015,0.027-0.025,0.037-0.04c4.224-4.549,8.503-8.87,12.846-12.962 c0.036-0.034,0.075-0.062,0.105-0.101c2.09-1.967,4.199-3.873,6.319-5.737c0.002-0.002,0.005-0.002,0.007-0.004 c0.003-0.003,0.005-0.007,0.008-0.009c7.476-6.571,15.141-12.511,23.034-17.842c0.842,0.639,1.662,1.282,2.444,1.93 c-2.215,1.536-4.412,3.129-6.597,4.764c-0.036,0.018-0.062,0.049-0.096,0.072c-3.003,2.251-5.979,4.595-8.929,7.036 c-0.017,0.013-0.031,0.026-0.047,0.039C65.533,53.834,49.223,71.325,33.386,92.523c-0.046,0.048-0.095,0.091-0.13,0.147 c-0.016,0.025-0.026,0.051-0.04,0.077c-3.116,4.176-6.214,8.489-9.297,12.955C23.665,105.947,22.646,106.791,21.563,105.954z M28.891,102.108c0.765,2.828,1.669,5.538,2.736,8.083c-1.942-1.227-3.805-2.579-5.581-4.035 C26.993,104.79,27.942,103.446,28.891,102.108z M39.549,117.532c-1.715-0.413-3.864-3.479-4.805-5.294 c-1.805-3.695-3.261-7.819-4.348-12.25c1.057-1.471,2.117-2.918,3.178-4.356c2.492,11.372,6.634,19.158,7.671,20.992 C41.037,117.109,40.562,117.774,39.549,117.532z M43.014,115.683c-0.767-1.363-3.998-7.408-6.445-16.303 c8.501,2.521,16.799,3.802,24.799,3.802c3.444,0,6.83-0.249,10.157-0.718c-0.924,1.67-1.89,3.307-2.884,4.921 c-6.086,1.33-12.667,2.007-19.584,2.007c-0.191,0-0.408,0.01-0.573-0.001c-0.55,0-0.997,0.444-1,0.995 c-0.003,0.552,0.442,1.002,0.995,1.005c0.193,0.001,0.385,0.001,0.578,0.001c6.338,0,12.409-0.556,18.089-1.654 c-1.943,2.996-3.997,5.902-6.185,8.686c-0.102,0.129-0.184,0.269-0.263,0.41c-4.104-0.068-8.221-0.577-12.248-1.545 C46.611,116.848,44.788,116.302,43.014,115.683z M64.125,121.051c-0.257,0.328-0.674,0.477-1.057,0.388 c-0.149-0.036-0.279-0.102-0.399-0.201c-0.217-0.18-0.353-0.442-0.381-0.737c-0.029-0.302,0.058-0.6,0.245-0.838 c2.702-3.44,5.21-7.054,7.544-10.808c0.023-0.032,0.043-0.063,0.062-0.097c1.409-2.271,2.744-4.601,4.014-6.979 c0.03-0.04,0.046-0.087,0.069-0.131c2.052-3.852,3.928-7.834,5.604-11.948c0.018-0.034,0.027-0.069,0.041-0.105 c0.316-0.776,0.618-1.56,0.92-2.345l1.587,1.686C77.748,100.712,71.615,111.518,64.125,121.051z M73.205,117.625 c8.483-4.438,14.879-10.088,19.789-17.41l1.361,1.445c-1.681,2.122-3.544,4.134-5.566,5.976c-0.408,0.372-0.438,1.005-0.065,1.413 c0.197,0.216,0.468,0.326,0.74,0.326c0.24,0,0.481-0.086,0.673-0.261c2.029-1.849,3.901-3.862,5.602-5.984l2.178,2.314 C90.826,111.475,82.261,115.681,73.205,117.625z M121.432,123.195c-1.186,1.117-3.06,1.061-4.177-0.126l-5.152-5.473 c1.988-1.042,3.445-2.376,4.371-3.978l5.084,5.401c0.541,0.575,0.826,1.326,0.802,2.115S122.007,122.654,121.432,123.195z" fill="#3a322b"/></g></g></svg>