<?xml version="1.0" encoding="UTF-8" standalone="no"?><svg xmlns="http://www.w3.org/2000/svg" xmlns:xlink="http://www.w3.org/1999/xlink" fill="#156669" height="1231.2" preserveAspectRatio="xMidYMid meet" version="1" viewBox="0.0 -0.7 1754.5 1231.2" width="1754.5" zoomAndPan="magnify"><g id="change1_1"><path clip-rule="evenodd" d="M175.2,1222.07c-10.59-4.62-22.85-9.47-27.24-10.77 c-4.39-1.3-14.65-7.28-22.79-13.28c-8.14-6.01-20.82-14.42-28.18-18.69c-22.73-13.19-33.81-21.35-62.13-45.74 C4.96,1107.83,0,1101.1,0,1086.3c0-10.7,4.97-41.81,13.9-86.97c3.57-18.08,9.11-50.21,12.3-71.39c3.19-21.18,8.75-55.85,12.35-77.03 C55.06,753.9,68.7,647.7,83.45,501.46C96.9,368.1,97.39,355.37,93.34,243.72c-0.23-6.37,0.77-10.26,3.62-14.09 c8.86-11.89-3.9-10.87,218.67-17.46c112.11-3.32,308.85-9.15,437.19-12.96c128.34-3.81,233.78-7.37,234.33-7.91 c0.94-0.94,4.02-33.71,12.23-130.03c4.01-47.03,5.34-51.66,16.84-58.37c6.15-3.59,10.84-3.61,331.53-1.32 c277.09,1.98,326.16,2.73,331.09,5.05c9.08,4.28,14.12,15.07,13.65,29.25c-0.21,6.52,3.57,71.03,8.42,143.37 c4.84,72.33,11.73,177.17,15.32,232.97c3.59,55.8,13.77,214.32,22.63,352.27c8.87,137.95,15.61,253.54,14.99,256.87 c-1.34,7.21-8.89,16.73-14.68,18.49c-2.28,0.7-7.53,5.05-11.66,9.68c-6.33,7.09-8.87,8.57-16.08,9.37 c-4.71,0.53-117.16,4.49-249.88,8.81c-185.08,6.02-241.2,8.39-240.84,10.14c0.26,1.26,1.48,18.64,2.71,38.64 c1.81,29.44,1.77,38.44-0.22,47.32c-3,13.42-10.12,21.52-18.91,21.52c-3.25,0-7.53,0.87-9.52,1.93 c-3.17,1.7-170.15,9.16-544.74,24.35c-264.25,10.72-414.52,16.89-433.99,17.83l-21.61,1.04L175.2,1222.07L175.2,1222.07z M194.16,1178.78c2.23-0.49,36.18-2.18,75.45-3.76c39.27-1.58,204.55-8.35,367.3-15.05c483.1-19.89,525.05-21.61,528.19-21.61 c2.28,0,3.27-2.6,4.1-10.8c1.47-14.53-1.48-59.58-4.55-69.51c-1.86-6.01-1.98-9.83-0.48-15.45c1.46-5.48,1.08-26.69-1.45-79.75 c-3.26-68.49-7.19-149.97-20.52-425.68c-3.17-65.61-7.65-158.78-9.94-207.03c-2.29-48.25-4.73-88.29-5.41-88.97 c-0.68-0.68-46.31,0.13-101.4,1.81c-162.39,4.94-647.53,19.5-762.42,22.88c-58.38,1.72-106.54,3.48-107.02,3.91 c-0.99,0.89,25.71,874.75,27.42,897.37c0.9,11.93,1.63,14.48,3.89,13.61L194.16,1178.78L194.16,1178.78z M135.26,1138.83 c0-3.93-6.37-208.62-10.25-330.19c-1.52-47.53-3.35-107.39-4.05-133.01c-0.71-25.62-1.89-45.91-2.63-45.09 c-0.74,0.82-3.16,15.45-5.38,32.5C99.43,766.89,94.99,798.26,88.14,838.7c-4.2,24.8-10.9,66.23-14.89,92.06 c-3.99,25.83-11.1,67.26-15.8,92.06c-4.7,24.8-8.94,47.29-9.41,49.98c-0.67,3.82,0.75,6.46,6.52,12.09 c4.06,3.96,7.71,6.84,8.11,6.39c0.4-0.45,1.69-11.1,2.85-23.67c2.39-25.67,9.62-69.6,15.89-96.45c3.51-15.06,4.78-17.94,8.1-18.41 c3.08-0.45,4.19,0.7,5.1,5.25c2.04,10.22-5.34,70.46-14.66,119.59l-4.58,24.14l6.27,6.34l6.27,6.34l1.33-22.31 c1.9-32.11,5.85-62.72,8.4-65.23c3.64-3.59,7.18,3.44,8.66,17.21c1.31,12.21,0.03,55.09-2.16,71.74l-1.1,8.45l14.72,8.85 C134.32,1143.1,135.28,1143.41,135.26,1138.83L135.26,1138.83z M1377.13,1018.11c61.48-1.98,157.44-4.93,213.24-6.58 c55.8-1.64,105.08-3.43,109.52-3.96l8.06-0.97l-1.08-10.68c-0.6-5.87-4.44-63.94-8.55-129.04c-4.11-65.1-8.71-137.39-10.22-160.63 c-1.51-23.25-5.31-82.43-8.44-131.51c-3.13-49.08-8.22-128.56-11.33-176.6c-3.1-48.05-7.77-120.76-10.37-161.57 c-9.83-154.32-11.54-178.48-12.73-179.67c-1.17-1.17-264.81-3.67-489.02-4.63l-108.8-0.47l-0.5,4.55 c-3.33,30.31-11.11,132.58-10.16,133.43c0.69,0.62,22.4,0.36,48.23-0.57c25.83-0.93,54.43-1.44,63.55-1.12 c16.47,0.57,16.63,0.62,23.02,7.59c5.56,6.06,6.43,8.32,6.43,16.56c0,5.25-0.8,11.04-1.77,12.86c-1.85,3.46-1.71,6.75,18.6,426.68 c6.17,127.61,12.6,262.46,14.28,299.66c1.68,37.2,3.4,68.75,3.81,70.12c0.6,1.97,6.05,2.24,26.6,1.32L1377.13,1018.11 L1377.13,1018.11z M1578.71,965.98c-5.37-12.57-8.01-50.3-10.41-148.89c-3.99-163.57-2.24-279.86,4.3-286.41 c5.29-5.29,6.61,7.44,9.32,90.08c1.05,32.03,3.55,84.45,5.56,116.48c2.44,38.95,3.8,85,4.09,139.03c0.4,74.08,0.16,81.45-2.94,88.77 c-1.86,4.39-4.17,7.98-5.14,7.98C1582.53,973.03,1580.43,969.95,1578.71,965.98L1578.71,965.98z M1636.41,958.3 c-2.94-2.94-6.15-8.64-7.14-12.68c-0.99-4.04-2.79-30.59-4-59.01c-4.08-95.95-5.79-130.42-8.61-173.79 c-10.99-169.46-17.24-404.87-14.06-529.81c1-39.27,2.52-73.93,3.38-77.03c1.83-6.59,6.8-8.32,9.49-3.3 c6.55,12.23,19.66,150.09,29.27,307.66c6.63,108.7,7.36,126.74,14.25,352.27c1.06,34.62,2.8,84.5,3.87,110.85 c2.85,69.95,2.83,71.42-0.86,79.12C1656.39,964.31,1645.11,966.87,1636.41,958.3L1636.41,958.3z M1068.12,944.94 c-5.55-10.73-8.66-27.6-9.8-53.09c-1.26-28.24,1.12-39.85,9.39-45.64c10.62-7.44,19.1,0.08,21.09,18.69 c2.24,20.9-3.72,64.67-10.68,78.53C1073.85,951.93,1071.89,952.23,1068.12,944.94L1068.12,944.94z M928.21,927.11 c-3.94-4.19-4.46-7.21-6.13-35.23c-1-16.85-1.84-72.91-1.86-124.58c-0.04-92.42,2.12-149.12,6.29-165.69 c3.74-14.87,10.82-12.41,14.57,5.06c3.07,14.29,7.39,80.32,9.6,146.54c2.16,64.83,2.22,77.97,0.53,134.2 c-1.02,33.99-1.26,35.76-5.42,39.93C940.16,932.96,933.63,932.88,928.21,927.11L928.21,927.11L928.21,927.11z M981.52,920.28 c-3.14-3.47-3.47-6.61-2.99-28.65c0.3-13.61-0.83-52.65-2.52-86.75c-3.75-75.98-3.41-220.89,0.53-227.8 c2.76-4.82,10.04-5.65,13.46-1.52c5.53,6.67,9.15,97.39,9.71,243.22c0.36,95.72,0.22,100.44-3.1,102.86 C991.6,925.31,985.58,924.77,981.52,920.28L981.52,920.28z M1059.3,790.31c-6.03-5.07-13.9-20.41-16.57-32.31 c-5.05-22.52-7.03-82.13-6.57-197.36c0.47-116.35,2.18-165.66,7.55-217c4.93-47.24,8.45-58.92,17.41-57.89 c6.54,0.76,8.92,5.93,12.49,27.02c3.82,22.6,9.93,90.77,12.37,137.95c1.09,21.18,3.26,54.58,4.8,74.21 c3.3,41.84,7.36,154.49,7.31,202.91c-0.03,31.25-0.37,34.67-4.53,45.07c-6.02,15.07-12.73,21.63-22.07,21.62 C1066.81,794.53,1062.58,793.06,1059.3,790.31L1059.3,790.31z M698.9,636.59c-32.81-4.14-50.84-11.71-95.07-39.9 c-46.07-29.37-74.31-53.75-96.14-83.02c-18.37-24.63-27.86-48.15-38.95-96.51c-3.64-15.88-7.08-29.62-7.64-30.53 c-0.56-0.91-4.39-1.65-8.5-1.65c-27.56,0-51.07-37.2-40.11-63.47c8.38-20.11,25.88-26.24,39.87-13.97c3.64,3.19,5.42,3.49,12.06,2 c4.28-0.96,10.06-1.25,12.84-0.64c7.82,1.72,15.11,10.69,17.81,21.92c1.32,5.51,4.57,17.39,7.23,26.41 c2.66,9.02,7.9,30.16,11.67,46.97c3.76,16.81,9.16,36.61,12,43.98c11.07,28.73,37.52,59.5,72.56,84.37 c26.12,18.55,61.72,40.31,74.03,45.24c23.45,9.4,71.69,10.89,92.35,2.84c22.51-8.77,47.22-35.14,65.26-69.64 c16.42-31.39,21.3-63.23,17.3-112.86c-1.21-14.98-2.6-28.63-3.11-30.33c-0.59-2.01-3.98-3.54-9.73-4.41 c-20.93-3.14-32.72-14.88-33.92-33.77c-1.44-22.6,13.04-38.64,34.81-38.54c18.64,0.09,35.46,12.42,44.79,32.84 c7,15.31,9.53,25.54,12.1,48.85c7.67,69.7,1.94,117.4-19.22,159.69c-17.9,35.8-44.04,67.48-70.01,84.88 C775.84,635.64,741.54,641.97,698.9,636.59L698.9,636.59z M1320.27,391.39c-28.21-5.1-54.36-20-70.11-39.94 c-16.93-21.44-33.75-62.67-46.83-114.77c-8.92-35.53-10.89-49.74-11.08-79.98c-0.19-29.71,0.61-32.05,14.5-42.26 c11.3-8.31,21.33-7.91,31.47,1.26c16.07,14.52,17.61,29.57,4.49,43.82c-4.17,4.54-4.26,5.28-2.45,21.61 c2.12,19.17,13.46,64.95,22.32,90.18c19.14,54.46,39.82,70.49,90.85,70.43c19.38-0.02,26.44-2.53,50.49-17.94 c22.3-14.29,43.19-37.25,50.99-56.07c9.55-23.01,11.45-51.37,5.71-85.07c-1.75-10.27-2.62-21.9-1.99-26.52 c0.62-4.52,0.22-11.82-0.89-16.23c-4.4-17.47,5.84-33,21.77-33c15.7,0,24.76,13.24,22.99,33.56c-0.6,6.88,0.3,15.58,2.56,24.81 c4.29,17.47,7.61,53.5,6.22,67.48c-4.27,43.1-21.19,79.76-50.42,109.24c-20.51,20.69-61.83,46.02-82.18,50.38 C1366.17,395.07,1338.21,394.61,1320.27,391.39L1320.27,391.39z" fill-rule="evenodd"/></g></svg>