<?xml version="1.0" encoding="UTF-8" standalone="no"?><svg xmlns="http://www.w3.org/2000/svg" xmlns:xlink="http://www.w3.org/1999/xlink" fill="#156669" height="62" preserveAspectRatio="xMidYMid meet" version="1" viewBox="0.0 0.0 62.0 62.0" width="62" zoomAndPan="magnify"><g id="change1_1"><path d="M56.792,23c-1.413,0-2.779,0.59-3.747,1.619l-2.031,2.158C50.72,26.511,50.375,26.31,50,26.178V24C50,10.767,39.233,0,26,0 S2,10.767,2,24v2.184C0.839,26.598,0,27.698,0,29v2c0,1.302,0.839,2.402,2,2.816V47c0,3.859,3.14,7,7,7h16.391l-2.55,2.709 C22.299,57.286,22,58.039,22,58.906C22,60.612,23.388,62,25.094,62c0.85,0,1.672-0.355,2.255-0.976l2.672-2.845 C32.772,60.642,36.271,62,40,62c8.271,0,15-6.729,15-15c0-4.024-1.627-7.843-4.469-10.653l6.23-6.632 c0.524,0.8,1.411,1.285,2.385,1.285C60.72,31,62,29.72,62,28.146C62,25.309,59.691,23,56.792,23z M47.892,57.306 c-0.607,0.466-1.252,0.881-1.936,1.236L28.458,41.044c0.354-0.684,0.77-1.329,1.236-1.936L47.892,57.306z M43.414,50l8.407-8.408 c0.347,0.758,0.611,1.552,0.807,2.366L45,51.586L43.414,50z M27.07,45.656c0.093-0.904,0.283-1.779,0.553-2.619l16.34,16.341 c-0.84,0.27-1.715,0.459-2.619,0.553L27.07,45.656z M27.785,51.456c-0.35-0.955-0.584-1.943-0.7-2.957l1.794,1.794L27.785,51.456z M14.415,26L9.76,21.345c0.427-0.62,0.927-1.184,1.479-1.693L17.587,26H14.415z M20.415,26l-7.559-7.559 c0.68-0.411,1.407-0.752,2.18-0.992L22.586,25l-1,1H20.415z M24,23.585L22.415,22l2.346-2.346c0.552,0.509,1.052,1.073,1.479,1.693 L24,23.585z M27.369,19.521C29.197,17.892,31.518,17,34,17c0.188,0,0.371,0.018,0.557,0.028l-5.449,5.449 C28.67,21.405,28.081,20.413,27.369,19.521z M21,20.585l-3.557-3.557C17.629,17.018,17.812,17,18,17 c1.883,0,3.639,0.533,5.145,1.441L21,20.585z M27.237,23.177c0.368,0.885,0.613,1.832,0.712,2.823h-3.535L27.237,23.177z M29.949,26 c-0.038-0.458-0.096-0.91-0.184-1.352l7.199-7.199c0.773,0.24,1.5,0.581,2.18,0.992L31.585,26H29.949z M34.413,26l6.347-6.347 c0.552,0.509,1.052,1.073,1.479,1.693L37.585,26H34.413z M43.237,23.176c0.368,0.885,0.614,1.833,0.713,2.824h-3.536L43.237,23.176z M34,15c-3.001,0-5.806,1.09-8.008,3.074C23.867,16.17,21.071,15,18,15c-3.83,0-7.238,1.81-9.437,4.612C10.53,11.805,17.591,6,26,6 s15.47,5.805,17.437,13.612C41.238,16.81,37.83,15,34,15z M8.763,23.176L11.587,26H8.051C8.15,25.009,8.395,24.061,8.763,23.176z M33.382,28l-4.463,8.925c-1.747,1.92-3.01,4.284-3.577,6.91c-0.329,0.224-0.821,0.178-1.062-0.156L12.956,28H33.382z M31.029,37.615c0.544-0.52,1.126-0.999,1.753-1.419l4.825,4.825l-1.538,1.634L31.029,37.615z M38.978,39.564l-4.376-4.376 c0.751-0.344,1.539-0.617,2.358-0.815l3.556,3.556L38.978,39.564z M41.887,36.473l-2.445-2.445C39.629,34.02,39.812,34,40,34 c1.27,0,2.51,0.186,3.705,0.542L41.887,36.473z M45.205,32.948C43.542,32.33,41.797,32,40,32c-2.671,0-5.176,0.71-7.351,1.939 L35.618,28H49c0.24,0,0.459,0.093,0.636,0.24L45.205,32.948z M26,2c12.131,0,22,9.869,22,22v2h-2v-2c0-11.028-8.972-20-20-20 S6,12.972,6,24v2H4v-2C4,11.869,13.869,2,26,2z M2,29c0-0.551,0.449-1,1-1h7.489l2.889,4H3c-0.551,0-1-0.449-1-1V29z M4,47V34 h10.822l7.837,10.852C23.179,45.57,24.019,46,24.905,46c0.05,0,0.097-0.013,0.146-0.016C25.029,46.321,25,46.657,25,47 c0,1.729,0.292,3.403,0.858,5H9C6.243,52,4,49.757,4,47z M25.892,59.654C25.685,59.874,25.395,60,25.094,60 C24.491,60,24,59.51,24,58.83c0-0.28,0.105-0.546,0.297-0.75l5.997-6.372l1.579,1.579L25.892,59.654z M33.288,54.702l5.204,5.204 c-2.646-0.303-5.101-1.404-7.102-3.183L33.288,54.702z M49.385,55.971L46.414,53l6.556-6.555C52.978,46.63,53,46.813,53,47 C53,50.479,51.619,53.636,49.385,55.971z M50.795,39.79L42,48.586l-1.53-1.53l8.693-9.254C49.777,38.414,50.321,39.08,50.795,39.79z M59.146,29c-0.326,0-0.619-0.181-0.764-0.472l-0.487-0.975c-0.146-0.292-0.426-0.495-0.75-0.542 c-0.325-0.05-0.65,0.067-0.874,0.305L39.055,45.641l-1.572-1.572L54.5,25.99c0.592-0.629,1.427-0.99,2.354-0.99 C58.589,25,60,26.411,60,28.146C60,28.617,59.617,29,59.146,29z" fill="inherit"/></g></svg>